<svg width="2500" height="2332" viewBox="0 0 2500 2332" fill="none" xmlns="http://www.w3.org/2000/svg">
<path d="M2339.46 1320.09C2339.43 1319.92 2339.41 1319.75 2339.39 1319.59C2339.23 1317.22 2341.01 1315.18 2343.37 1315.01C2345.73 1314.85 2347.78 1316.63 2347.94 1318.99C2348.11 1321.35 2346.33 1323.4 2343.97 1323.56C2343.82 1323.57 2343.67 1323.57 2343.53 1323.57C2343.43 1323.59 2343.37 1323.61 2343.29 1323.68C2343.05 1324.06 2343.91 1323.99 2343.32 1325.64C2343.32 1325.64 2343.32 1325.82 2343.26 1326C2343.21 1326.64 2342.97 1328.52 2342.93 1329.53C2343.05 1329.67 2343.09 1329.74 2343.08 1330.09C2343.02 1330.57 2342.91 1331.74 2342.74 1332.49C2342.59 1333.13 2342.33 1333.25 2342.11 1333.41C2341.82 1334.73 2341.74 1335.83 2340.98 1337.45C2340.91 1338.67 2340.82 1339 2340.57 1339.6C2340.54 1341.4 2340.66 1341.67 2339.45 1344.52C2339.13 1345.85 2339.43 1346.77 2339.76 1348.16C2340.1 1349.58 2341.04 1350.18 2341.18 1351.64C2341.51 1355.07 2341.43 1357.41 2340.69 1360.1L2341.33 1361.62C2342.13 1361.99 2344.11 1362.99 2343.01 1364.57C2344.56 1365.39 2346.9 1366.25 2348.82 1367.9C2349.6 1368.54 2350.42 1369.25 2351.15 1370.07C2352.55 1370.29 2352.4 1370.4 2353.44 1371.04C2356.49 1372.91 2361.37 1376.62 2364.21 1379.24C2364.7 1379.53 2364.89 1379.73 2365.29 1379.94C2365.35 1380.06 2365.37 1380.08 2365.35 1380.11C2365.22 1380.46 2365.22 1380.47 2365.1 1380.74C2365.25 1380.91 2365.54 1381.07 2365.71 1381.22C2365.87 1381.26 2365.87 1381.19 2366.14 1381.12C2366.5 1381.45 2366.94 1381.72 2367.1 1381.71C2367.58 1381.58 2367.5 1381.68 2367.9 1381.23C2368.05 1381.08 2368.3 1381.23 2368.3 1381.23C2368.45 1381.05 2368.78 1380.69 2369.22 1380.43C2369.57 1380.23 2370.23 1380.2 2370.23 1380.2C2370.46 1380.21 2370.42 1380.44 2370.4 1380.51C2370.14 1380.64 2369.61 1380.78 2369.31 1381.01C2368.65 1381.68 2368.14 1382.6 2368.14 1382.6C2369.46 1382.42 2370.27 1382.74 2371.37 1382.62C2371.97 1382.58 2372.41 1382.62 2373.04 1382.17C2373.04 1382.17 2373.64 1381.74 2374.18 1381.51C2374.71 1381.28 2375.21 1381.4 2375.67 1381.74C2376 1382.11 2376.2 1382.11 2375.7 1382.63C2375.52 1382.83 2375.26 1383.06 2374.93 1383.38C2374.35 1383.96 2373.56 1384.73 2372.75 1385.36C2371.93 1386 2371 1386.58 2370.42 1386.84C2368.95 1387.89 2369.3 1387.62 2368.14 1388.66C2368 1388.79 2367.61 1389.03 2367.42 1389.15C2366.97 1389.45 2366.83 1389.2 2366.53 1388.65C2366.53 1388.65 2366.39 1388.45 2366.17 1388.01C2365.93 1387.54 2365.74 1386.99 2365.82 1387C2365.54 1386.97 2364.31 1385.52 2364.31 1385.21C2364.05 1385.15 2362.94 1384.08 2362.9 1383.87L2361.92 1383.09C2360.79 1383.32 2360.53 1382.62 2357.56 1380.51C2357.22 1380.51 2356.7 1380.32 2355.95 1379.77C2354.61 1378.69 2351.39 1376.26 2350.85 1375.99C2350.26 1375.69 2349.56 1375.41 2349.13 1375.05C2348.49 1374.93 2348.14 1374.87 2347.81 1374.78C2347.49 1374.69 2347.19 1374.57 2346.36 1374.46C2345 1374.29 2343.6 1373.73 2342.26 1373.06C2341.63 1372.76 2341.07 1372.61 2340.53 1372.37C2339.31 1371.86 2338.26 1371.39 2337.45 1371.2C2337.14 1371.17 2335.66 1370.73 2334.89 1370.28C2334.62 1370.14 2334.47 1370.01 2334.29 1369.97C2333.89 1369.88 2333.62 1370.04 2333.44 1370.1C2332.45 1370.62 2331.52 1371.06 2330.67 1371.52C2329.87 1371.95 2329.13 1372.39 2328.35 1372.84C2327.65 1373.25 2326.84 1373.63 2326.01 1374.03C2326.01 1374.03 2323.63 1375.22 2322.33 1375.68C2321.2 1376.6 2318.9 1378.19 2317.49 1378.98C2316.8 1379.31 2315.44 1380.17 2314.82 1380.36C2314.46 1380.65 2313.19 1381.55 2312.2 1382.3C2311.43 1382.87 2310.85 1383.36 2310.85 1383.36C2310.41 1383.76 2310.44 1383.95 2309.59 1383.59C2309.36 1383.78 2309.17 1383.9 2309.02 1384.01C2308.41 1384.46 2308.36 1384.35 2308.14 1384.34C2307.71 1384.71 2307.66 1384.52 2307.28 1384.94C2307.04 1385.32 2307.29 1385.23 2306.77 1385.41C2306.66 1385.46 2306.61 1385.59 2306.53 1385.66C2306.11 1386 2306.11 1386.97 2305.11 1387.04C2304.54 1387.45 2304.69 1387.95 2304.25 1387.92C2304.27 1388.35 2303.47 1388.97 2303.32 1388.97C2302.05 1389.41 2301.97 1388.48 2300.44 1389.17C2300.25 1389.26 2299.96 1389.51 2299.58 1389.58C2298.91 1389.71 2298.1 1389.58 2297.6 1389.19C2296.83 1388.6 2296.11 1387.44 2296.11 1387.44C2295.86 1386.86 2296.01 1386.49 2296.78 1385.94C2297.1 1385.73 2297.16 1385.58 2297.7 1385.54C2297.97 1385.44 2297.89 1385.59 2298.37 1385.42C2298.65 1385.32 2298.65 1385.39 2299.21 1385.35C2299.34 1385.26 2299.52 1385.23 2299.76 1385.15C2300.2 1385.01 2300.63 1384.84 2300.63 1384.84C2300.63 1384.84 2300.74 1384.73 2301.17 1384.77C2301.53 1384.62 2301.9 1384.4 2302.09 1384.34C2302.04 1383.77 2302.1 1383.79 2302.36 1383.57C2302.69 1383.28 2302.75 1383.33 2303 1383.5C2303.1 1383.44 2303.15 1383.42 2303.14 1383.34C2303.1 1383.04 2302.84 1382.9 2302.92 1382.25C2302.81 1381.98 2302.64 1381.66 2302.68 1381.47C2302.73 1381.26 2302.78 1381.15 2302.91 1381.09C2303.05 1381.01 2303.09 1381.11 2303.16 1381.19C2303.29 1381.35 2303.4 1381.79 2303.4 1381.79C2303.44 1382.3 2303.6 1382.95 2304.1 1382.58C2304.4 1382.28 2304.45 1381.49 2305.05 1381.66L2305.48 1382.03C2305.85 1381.69 2305.86 1381.69 2306.08 1381.55C2306.08 1381.55 2305.74 1381.21 2306.04 1380.94C2306.24 1380.76 2306.49 1380.63 2306.93 1380.14C2308.13 1378.81 2308.75 1378.22 2310.05 1377.15C2312.65 1375.02 2315.6 1373.52 2317.48 1372.78C2318.09 1372 2318.69 1371.48 2320.04 1371.35C2321.66 1368.62 2324.75 1366.19 2325.46 1365.8C2326.04 1364.75 2326.29 1364.87 2327.05 1364.66C2327.64 1364.18 2327.78 1364.18 2328.05 1363.67C2328.31 1362.64 2327.45 1359.87 2329.65 1359.73C2330.11 1359.08 2330 1359.23 2330.52 1358.61C2330.16 1357.74 2330.02 1357.01 2329.92 1356.39C2329.91 1356.32 2329.05 1355.71 2329.29 1354.93C2328.93 1354.49 2328.25 1353.48 2328.04 1353.01C2327.94 1353.01 2327.86 1352.98 2327.75 1352.96C2327.64 1352.95 2327.5 1352.95 2327.35 1352.94C2327.01 1353.82 2326.63 1353.89 2326.03 1354.08C2324.94 1356.4 2324.56 1357.38 2321.48 1359.29C2320.26 1360.66 2319.87 1362.18 2319.88 1362.16C2319.67 1362.61 2319.74 1363.24 2319.85 1363.58C2319.69 1364.08 2319.73 1364.13 2319.73 1364.13C2319.8 1364.32 2319.97 1364.57 2320.19 1364.63C2320.56 1364.72 2320.93 1364.71 2320.91 1365.12C2320.86 1365.63 2320.18 1365.55 2319.86 1365.49C2318.63 1365.3 2319.02 1364.5 2318.23 1364.76C2317.63 1365.16 2317.4 1366.32 2316.42 1366.17C2316.29 1366.08 2316.33 1365.83 2316.42 1365.65C2316.56 1365.36 2316.8 1365.12 2316.66 1365.01C2316.01 1365.22 2315.37 1365.43 2314.73 1365.64C2314.13 1365.8 2313.47 1365.5 2314.06 1365.11C2314.34 1365 2314.73 1364.87 2315.22 1364.55C2315.22 1364.55 2315.47 1364.21 2314.99 1364.38C2314.47 1364.57 2313.69 1364.69 2313.14 1364.63C2313.14 1364.63 2311.99 1364.48 2311.84 1364.39C2311.69 1364.3 2311.56 1363.94 2311.92 1363.94C2312.37 1363.95 2313.51 1363.81 2314.4 1363.58C2314.82 1363.41 2315.63 1362.93 2316.09 1362.7C2316.09 1362.7 2316.58 1361.99 2316.85 1361.84C2317.31 1361.32 2317.69 1361.01 2318.09 1360.48C2318.48 1359.67 2318.89 1358.39 2320.19 1356.4C2320.79 1355.49 2321.54 1354.42 2322.48 1353.47C2322.48 1353.47 2322.72 1351.95 2323.94 1350.86C2324.21 1350.23 2324.62 1349.48 2325.02 1348.79C2325.18 1348.52 2325.33 1348.29 2325.48 1348.04C2325.86 1347.44 2326.26 1346.33 2327.73 1346.16C2327.73 1346.16 2328.37 1345.69 2328.61 1345.36C2328.99 1345.04 2328.9 1344.53 2329.21 1344.18C2328.74 1343.72 2327.53 1342.86 2327.42 1341.66C2327.29 1340.39 2327.75 1339.34 2328.52 1338.56C2329.37 1337.71 2330.27 1337.28 2331.36 1337.35C2332.73 1337.55 2332.98 1338 2333.42 1338.45C2333.83 1338.88 2333.99 1338.6 2334.17 1339.1C2335.31 1339.4 2335.25 1339.27 2335.24 1340.11C2335.41 1340.35 2335.71 1340.57 2335.7 1341.06C2336.09 1340.26 2336.16 1340.12 2337.19 1339.24C2337.44 1338.52 2337.6 1337.82 2337.81 1337.11C2338.01 1336.45 2338.26 1335.77 2338.46 1335.26C2338.25 1333.81 2338.67 1333.58 2339.23 1332.31C2339.13 1332.14 2339.16 1332.09 2339.2 1331.8C2339.42 1330.97 2339.76 1329.86 2339.96 1329.14C2339.96 1329.14 2340.03 1328.85 2340.32 1328.83C2340.58 1327.92 2340.96 1326.22 2341.03 1325.87C2341.29 1324.92 2341.12 1324.61 2340.92 1324.07C2340.85 1323.9 2340.88 1323.65 2340.77 1323.45C2340.45 1322.9 2340.11 1322.17 2339.88 1321.66C2339.72 1321.33 2339.48 1320.09 2339.48 1320.09C2339.28 1319.45 2339.46 1320.09 2339.46 1320.09Z" fill="black"/>
</svg>
