<svg width="80" height="80" viewBox="0 0 80 80" fill="none" xmlns="http://www.w3.org/2000/svg">
<path d="M9.95103 57.0686C7.94035 56.1046 6.23166 54.3531 5.86086 52.876C5.426 51.1423 5.99286 47.7949 7.15703 45.228C8.25532 42.8057 11.3489 37.9537 13.2935 35.6029L14.2089 34.4966L13.4706 36.608C12.4438 39.5446 12.4847 42.6874 13.5706 44.2989C15.195 46.7092 18.4167 47.9966 21.325 47.3966C23.4676 46.9566 44.2501 41.3132 45.0031 40.9692C45.5283 40.7292 44.9169 40.6263 42.8825 40.6092H40.0242L39.9956 38.6732C39.9785 37.608 39.8562 36.0263 39.719 35.1583L39.4699 33.5806L38.1975 37.0949L36.925 40.6092H34.7859C33.6094 40.6092 32.6469 40.4663 32.6469 40.2949C32.6469 40.1234 33.8251 36.8446 35.2652 33.0109C36.7053 29.1777 38.2109 25.1697 38.611 24.1046L39.3385 22.1686H41.5249C42.7274 22.1686 43.7113 22.2257 43.7113 22.2829C43.7113 22.3457 43.2975 23.4537 42.7916 24.744C42.2859 26.0349 41.9158 27.1349 41.9695 27.1886C42.0209 27.2457 42.9764 26.1406 44.0878 24.7406L46.1086 22.1949H52.8789C58.9242 22.1949 59.625 22.252 59.4237 22.7692C59.2997 23.0949 59.098 23.756 58.9757 24.244C58.77 25.064 58.5751 25.132 56.445 25.132H54.1371L53.3996 27.0686L52.6621 29.0046L54.641 29.1132C55.7294 29.176 56.6199 29.3874 56.6199 29.5874C56.6199 29.7874 56.3834 30.5166 56.0937 31.2097C55.5908 32.4137 55.4732 32.4743 53.4402 32.5806L51.3132 32.6949L50.4629 34.8943C49.9949 36.104 49.6126 37.1417 49.6126 37.1994C49.6126 37.2566 50.7691 37.3023 52.1827 37.3023C54.3157 37.3023 54.7167 37.3994 54.5405 37.8566C54.4239 38.1594 54.4948 38.4109 54.7011 38.4109C54.9062 38.4109 59.3498 37.2492 64.5755 35.8292C73.5351 33.3949 76.0112 32.8949 73.164 34.0954C72.4829 34.3812 60.9718 39.3509 47.5839 45.136C34.1959 50.9212 21.9974 56.1063 20.4761 56.6583C18.6673 57.3149 16.6889 57.7211 14.7594 57.832C12.1883 57.9806 11.5699 57.8891 9.94977 57.1103L9.95103 57.0686ZM47.7297 30.4772C49.1715 26.6434 50.3435 23.4074 50.3342 23.2852C50.3227 23.1652 48.917 24.5572 47.2057 26.3823L44.0942 29.7017L44.0919 32.8366C44.089 36.696 44.4417 39.208 44.8385 38.1594C44.9871 37.7652 46.2879 34.3103 47.7297 30.4772ZM15.6997 38.6629C16.1083 37.5886 17.6577 33.4732 19.1429 29.5177L21.8431 22.3257L24.2516 22.2172L26.6601 22.1086L26.5304 23.6914C26.219 27.4897 26.0875 29.8852 26.1904 29.8852C26.2515 29.8852 26.941 28.1434 27.7229 26.0149L29.1446 22.1446L31.2653 22.1406C32.4317 22.1406 33.3859 22.2777 33.3859 22.4549C33.3859 22.6263 32.2077 25.9057 30.7677 29.7389C29.3275 33.5726 27.8219 37.58 27.4218 38.6452L26.6943 40.5817H24.2838H21.8732L22.0926 36.8012C22.2132 34.7217 22.2298 33.1869 22.1326 33.3897C22.0326 33.5897 21.3965 35.252 20.7197 37.0777L19.489 40.3972L17.2245 40.5057L14.96 40.6143L15.6997 38.6629ZM27.4848 40.268C27.4848 40.0966 28.663 36.8172 30.1031 32.9834C31.5432 29.1503 33.0488 25.1423 33.4489 24.0777L34.1764 22.1412H36.3935C37.613 22.1412 38.5553 22.284 38.4877 22.4612C38.4203 22.6383 36.8711 26.7846 35.0454 31.6777L31.7261 40.5737L29.6054 40.5772C28.4391 40.5812 27.4848 40.4394 27.4848 40.268Z" fill="black"/>
</svg>
